PathFileType	4	(X/Y/Z)	./resultDataOpenSim/trcMotMarkerGrf/sub10/qtm-12-02.trc
DataRate	CameraRate	NumFrames	NumMarkers	Units	OrigDataRate	OrigDataStartFrame	OrigNumFrames
250.000000	250.000000	10	24	m	250.000000	404	461
Frame#	Time	L.Toe.Tip			R.Toe.Tip			L.Ankle.Lat			R.Ankle.Lat			L.Ankle.Med			R.Ankle.Med			L.Heel			R.Heel			L.Knee.Lat			R.Knee.Lat			L.Knee.Med			R.Knee.Med			L.Thigh.Upper			R.Thigh.Upper			L.ASIS			R.ASIS			V.Sacral			L.Acromium			R.Acromium			C7			L.Elbow			R.Elbow			L.Wrist.Lat			R.Wrist.Lat
		X1	Y1	Z1	X2	Y2	Z2	X3	Y3	Z3	X4	Y4	Z4	X5	Y5	Z5	X6	Y6	Z6	X7	Y7	Z7	X8	Y8	Z8	X9	Y9	Z9	X10	Y10	Z10	X11	Y11	Z11	X12	Y12	Z12	X13	Y13	Z13	X14	Y14	Z14	X15	Y15	Z15	X16	Y16	Z16	X17	Y17	Z17	X18	Y18	Z18	X19	Y19	Z19	X20	Y20	Z20	X21	Y21	Z21	X22	Y22	Z22	X23	Y23	Z23	X24	Y24	Z24

404	1.612	1.6210759	0.071132249	-0.17223046	0.86496685	0.037694165	0.069899482	1.4900016	0.069047285	-0.20636657	0.75646537	0.12434039	0.11016299	1.4944117	0.089424591	-0.12236181	0.78689544	0.13180182	0.026288346	1.43146	0.024651594	-0.17077396	0.70123227	0.12678988	0.064157156	1.399006	0.44523869	-0.20777957	1.0155419	0.43154825	0.11184968	1.411376	0.42044597	-0.089756685	1.0457252	0.4165824	-0.01185674	1.2409326	0.79997595	-0.2492504	1.1206447	0.82990034	0.12542155	1.2753324	0.90572433	-0.16522318	1.220609	0.91509053	0.07778516	1.0565387	0.90990317	-0.10036979	1.1748373	1.3863277	-0.20794826	1.1761584	1.3724203	0.10732335	1.0966742	1.4028513	-0.051811046	1.0103201	1.0923264	-0.25732873	1.1559079	1.0135807	0.20299319	1.0251846	0.86985915	-0.35463185	1.4100685	1.0091386	0.19205833
405	1.616	1.624806	0.066021273	-0.17273192	0.86560897	0.037572269	0.069806629	1.4927183	0.068569739	-0.20633036	0.75985619	0.12770781	0.11013605	1.4978654	0.088790565	-0.1222204	0.7913659	0.1340734	0.02669656	1.4327484	0.026036296	-0.17062537	0.70541484	0.13131675	0.063529923	1.4058292	0.44470978	-0.20861405	1.023502	0.43086213	0.11163511	1.41834	0.42033512	-0.090333487	1.0539986	0.41530773	-0.011916641	1.2480079	0.79946222	-0.25037452	1.129683	0.8284529	0.12455494	1.2821954	0.90540596	-0.16611142	1.2280997	0.91438385	0.076576778	1.0634316	0.90909513	-0.10102818	1.1808608	1.3859679	-0.20967937	1.1825063	1.3716882	0.10572156	1.1028035	1.4020817	-0.053463525	1.0173002	1.0911474	-0.2584208	1.1619857	1.0126638	0.20051776	1.0331483	0.86879774	-0.35602623	1.4160449	1.0070582	0.18942054
406	1.62	1.6280986	0.061696703	-0.17281711	0.8662961	0.037428723	0.069708623	1.4952073	0.068069802	-0.20636886	0.76345392	0.13113885	0.11004027	1.5009049	0.088243527	-0.12216291	0.79620683	0.13630682	0.027118377	1.4340857	0.027308543	-0.17065998	0.70999565	0.13596891	0.062727897	1.4127405	0.44455818	-0.2093904	1.0317013	0.43022636	0.11143957	1.4249556	0.42051144	-0.090952641	1.0625467	0.41396682	-0.011891061	1.2551449	0.79902725	-0.25156396	1.1394279	0.82681393	0.12381626	1.2889747	0.90510596	-0.16715378	1.2356608	0.91368962	0.075290248	1.0703772	0.90841123	-0.10169754	1.1869317	1.385649	-0.21142421	1.1889128	1.3710308	0.10413681	1.1089719	1.4014076	-0.055148391	1.0243658	1.0899862	-0.25954925	1.168043	1.0118263	0.19783187	1.0412333	0.86774558	-0.35739449	1.4219998	1.0048723	0.1868374
407	1.624	1.630728	0.057959776	-0.17257626	0.86706732	0.037269805	0.069596389	1.4974283	0.067610914	-0.20647708	0.76731903	0.13457391	0.10985366	1.5035441	0.087774082	-0.12215788	0.80145904	0.13845901	0.027548181	1.4353829	0.028457619	-0.17080632	0.71499887	0.14075005	0.061693494	1.4198887	0.4448418	-0.21005478	1.0400545	0.42965932	0.11126664	1.4318619	0.42103458	-0.091508355	1.0713877	0.41255643	-0.011765391	1.2623597	0.79873871	-0.25279174	1.1491457	0.82521983	0.12319139	1.2957019	0.90483469	-0.1683361	1.2432629	0.91301177	0.073927663	1.0774024	0.90786821	-0.10244444	1.1930425	1.3853725	-0.21317268	1.1953758	1.3704508	0.10257038	1.115203	1.4008456	-0.056866786	1.0315213	1.0888504	-0.26072227	1.1741279	1.0110773	0.19503039	1.0494442	0.8667128	-0.35873357	1.427914	1.0025842	0.18430297
408	1.628	1.6327894	0.0546358	-0.17206003	0.86795406	0.037109012	0.06945912	1.4994042	0.067258019	-0.20659305	0.77159072	0.13798337	0.10959653	1.5058294	0.087408084	-0.12215318	0.80715427	0.14050308	0.027983317	1.4365555	0.029479452	-0.17099551	0.72046193	0.14559982	0.060473721	1.4273619	0.44554472	-0.21059129	1.0485656	0.42913363	0.11114534	1.4393677	0.42188248	-0.091917537	1.080534	0.41106793	-0.011530291	1.2696481	0.79864069	-0.25402155	1.1582832	0.82380797	0.12262615	1.302393	0.90462518	-0.1696041	1.2508867	0.9123446	0.072488161	1.0844352	0.90739899	-0.10323494	1.199188	1.3851308	-0.21491227	1.2018889	1.3699467	0.10101723	1.1215165	1.4004065	-0.058605919	1.0387607	1.0877481	-0.26194555	1.180208	1.0104022	0.19224558	1.057784	0.86570614	-0.36004295	1.4337684	1.0001986	0.18180664
409	1.632	1.634512	0.051697577	-0.17134468	0.86896972	0.036963125	0.069305717	1.5011741	0.067015378	-0.20662306	0.77636662	0.14136211	0.10931727	1.5077894	0.08715868	-0.12209666	0.81328609	0.14244983	0.028432369	1.4375817	0.030364667	-0.17119483	0.7264336	0.15041731	0.059232402	1.4351547	0.44657057	-0.21100819	1.057335	0.42859741	0.11110412	1.4472832	0.42298756	-0.092160768	1.0899939	0.4094882	-0.011185825	1.2769926	0.79874123	-0.25522465	1.1667717	0.82252689	0.12205333	1.3090606	0.90450611	-0.17092762	1.2585277	0.91167591	0.07097254	1.0912886	0.90701431	-0.10393537	1.2053677	1.384906	-0.21662857	1.2084485	1.3695059	0.099469974	1.127916	1.4000793	-0.060338826	1.0460754	1.0866853	-0.2632158	1.1862246	1.0097844	0.18954028	1.0662523	0.86473101	-0.36132249	1.4395527	0.99771586	0.17934243
410	1.636	1.6360854	0.0492099	-0.17059629	0.87012686	0.036841269	0.069164327	1.5027572	0.066853708	-0.20649505	0.78166281	0.14469841	0.10905887	1.5094534	0.086996307	-0.12195338	0.81981924	0.14431387	0.028911901	1.4384861	0.031109305	-0.17136484	0.73293817	0.15514259	0.058124538	1.4431847	0.44776892	-0.21131659	1.0664811	0.42800758	0.11114818	1.4552927	0.42428303	-0.092259574	1.0997694	0.40780316	-0.010741125	1.2843661	0.7990167	-0.25638888	1.1748033	0.82126894	0.12143182	1.3157186	0.90448763	-0.17230389	1.2661722	0.9109942	0.06938596	1.0977968	0.9068039	-0.10439536	1.2115798	1.3846825	-0.21830874	1.2150522	1.3691123	0.097921123	1.1343798	1.3998267	-0.062040331	1.0534578	1.0856599	-0.26451947	1.1921616	1.0092174	0.18688957	1.0748462	0.8637886	-0.36257025	1.4452637	0.9951299	0.17690471
411	1.64	1.6375998	0.047210366	-0.17004249	0.8714468	0.036727607	0.069058578	1.5041341	0.066758245	-0.20621171	0.78746194	0.14796224	0.10885485	1.5108738	0.086870634	-0.12171995	0.82671681	0.14607843	0.029441082	1.4392982	0.031724922	-0.17145463	0.73994262	0.15977689	0.057208699	1.4513337	0.44898902	-0.2115165	1.0759986	0.4273596	0.11125432	1.4632074	0.42571767	-0.092250984	1.1098533	0.40599885	-0.010210536	1.291733	0.79942789	-0.25751064	1.182594	0.81997623	0.12075892	1.322375	0.90456369	-0.17372183	1.2737873	0.91029409	0.067731223	1.1039611	0.90680788	-0.10458241	1.2178128	1.3844601	-0.21994881	1.2216955	1.3687537	0.096362734	1.1408698	1.3996025	-0.063701479	1.0608978	1.084661	-0.26584137	1.1980375	1.0087032	0.18424267	1.0835601	0.86287105	-0.36378441	1.4509037	0.99243692	0.17449002
412	1.644	1.6390493	0.045643174	-0.16983032	0.87294542	0.036577987	0.068979073	1.5052675	0.066731932	-0.20584071	0.79374548	0.15111501	0.10874578	1.5121181	0.086755688	-0.1214245	0.83394203	0.14770746	0.030040795	1.4400312	0.032237599	-0.17144451	0.7473672	0.16433609	0.056491034	1.4594853	0.45012275	-0.21160484	1.0857235	0.42667677	0.11139164	1.4709624	0.42724685	-0.092180736	1.1202303	0.40406159	-0.0096088649	1.2990581	0.79993549	-0.25858771	1.1902827	0.8186358	0.12005319	1.3290283	0.90472307	-0.17515447	1.2813463	0.90957596	0.066000836	1.1099242	0.90696192	-0.10459423	1.2240543	1.384256	-0.22155751	1.2283792	1.3684222	0.094787373	1.1473497	1.3993755	-0.065326226	1.0683818	1.0836719	-0.26717027	1.2038681	1.0082505	0.18156779	1.0923835	0.86196604	-0.36496442	1.4564764	0.9896399	0.1720994
413	1.648	1.6403882	0.044390179	-0.1699001	0.87461281	0.036342476	0.068886126	1.5061523	0.066762332	-0.20545471	0.80047869	0.15412321	0.10878058	1.5132477	0.086661552	-0.12110817	0.8414423	0.14917996	0.030738328	1.4406811	0.032670548	-0.17133769	0.75512786	0.16883062	0.055989701	1.4675443	0.45111056	-0.21159071	1.0954929	0.42596261	0.11154537	1.4785482	0.42881984	-0.092097973	1.1308774	0.40198174	-0.0089496538	1.3063124	0.8005078	-0.25962465	1.1979383	0.81725078	0.11933397	1.3356709	0.90495673	-0.17657432	1.2888518	0.90884326	0.064189478	1.1158328	0.90717074	-0.10454862	1.2303039	1.3840901	-0.2231486	1.2351135	1.368114	0.093191423	1.1537956	1.3991401	-0.066914392	1.0759052	1.0826774	-0.26849399	1.2096557	1.0078689	0.17885877	1.1013082	0.86106783	-0.36611312	1.4619853	0.98674378	0.16973465
